#!OML:ASF F:\VICON\USERDATA\Patient Classification 1\PLAYGROUND\JustinFriday\JustinFriday.ASF
:FULLY-SPECIFIED
:DEGREES
1551
root -28.0635 17.364 -5.70806 365.059 20.2617 -1.81427
lowerback 10.8812 -0.040173 4.03783
upperback -6.71751 0.590685 -0.440803
thorax -13.5129 -0.114908 -2.89769
lowerneck 12.2837 -3.26757 2.74118
upperneck 1.90632 -3.70634 9.2385
head -1.37815 -2.04701 2.69365
rclavicle 1.35236e-014 5.56597e-015
rhumerus -59.1415 -31.5334 -55.3294
rradius 22.2679
rwrist 0.759327
rhand -11.9925 -384.608
rfingers 7.12502
rthumb 14.0642 -414.112
lclavicle 1.35236e-014 5.56597e-015
lhumerus -42.9909 -8.03089 76.9868
lradius 38.0436
lwrist 5.12253
lhand -20.6811 -5.69413
lfingers 7.12502
lthumb 5.68222 24.2097
rfemur -28.0688 -7.71363 20.678
rtibia 27.6082
rfoot -4.48081 -5.91776
rtoes -10.82
lfemur 6.81308 1.92199 -12.7669
ltibia 21.7288
lfoot -14.6692 25.7603
ltoes -7.36061
1552
root -28.1447 17.3636 -5.64964 363.944 18 -3.46679
lowerback 11.5066 0.964948 3.64198
upperback -7.04009 2.01652 0.27876
thorax -14.1993 0.614307 -2.21588
lowerneck 16.2558 -2.72904 3.82828
upperneck 0.467454 -2.39144 9.07461
head -2.64543 -1.53714 2.51789
rclavicle -2.91841e-014 -2.42517e-014
rhumerus -58.4883 -30.4158 -56.1333
rradius 21.9111
rwrist -0.488339
rhand -11.9584 -383.808
rfingers 7.12502
rthumb 14.0971 -413.31
lclavicle -2.91841e-014 -2.42517e-014
lhumerus -43.3544 -9.26028 77.6313
lradius 37.2729
lwrist 4.88004
lhand -19.8928 -8.67291
lfingers 7.12502
lthumb 6.44327 21.2091
rfemur -27.4489 -4.8174 22.5554
rtibia 27.7105
rfoot -4.64656 -6.41822
rtoes -11.1666
lfemur 6.61195 3.93459 -10.6789
ltibia 24.1208
lfoot -14.5859 25.4515
ltoes -5.77849
1553
root -28.1867 17.3821 -5.44084 363.786 19.1397 -2.82603
lowerback 9.35897 1.13892 1.43009
upperback -6.02678 1.87289 1.01898
thorax -11.7859 0.836378 -0.0622468
lowerneck 16.4107 -5.066 5.05107
upperneck -2.30257 -5.2269 5.98402
head -3.66345 -2.92899 1.55205
rclavicle 2.03941e-014 5.46658e-016
rhumerus -56.1438 -32.5856 -54.6634
rradius 20.9081
rwrist 1.25209
rhand -11.8671 -382.993
rfingers 7.12502
rthumb 14.1851 -412.488
lclavicle 2.03941e-014 5.46658e-016
lhumerus -43.0984 -10.8217 79.8124
lradius 38.7447
lwrist 6.16849
lhand -20.1677 -6.89143
lfingers 7.12502
lthumb 6.17792 22.9985
rfemur -26.0113 -3.97296 21.9179
rtibia 27.2336
rfoot -5.19804 -8.18152
rtoes -10.0152
lfemur 5.56647 3.25031 -10.5257
ltibia 26.8723
lfoot -14.3851 24.3007
ltoes -2.56156
1554
root -28.0271 17.5086 -5.42413 366.875 20.7022 0.231866
lowerback 8.21464 0.265676 2.34932
upperback -6.49914 0.641198 -0.525709
thorax -11.611 0.0963692 -2.00811
lowerneck 13.2489 -3.51259 3.76928
upperneck 0.742285 -3.77752 7.25916
head -1.97597 -2.09303 1.91097
rclavicle 2.02916e-014 1.29707e-014
rhumerus -53.0921 -35.9254 -53.6317
rradius 18.114
rwrist 5.52531
rhand -18.0419 -404.488
rfingers 7.12502
rthumb 8.22993 -434.308
lclavicle 2.02916e-014 1.29707e-014
lhumerus -42.4072 -10.4597 79.4959
lradius 39.242
lwrist 6.1638
lhand -20.5019 -4.62551
lfingers 7.12502
lthumb 5.85527 25.2736
rfemur -28.0379 -13.7041 20.168
rtibia 27.6544
rfoot -6.83796 -0.504942
rtoes -0.805206
lfemur 1.95915 1.35983 -14.9543
ltibia 29.1512
lfoot -13.6943 24.8038
ltoes 3.58186
1555
root -28.1918 17.4618 -5.30605 363.505 18.2912 -3.04277
lowerback 11.5034 0.428576 3.75057
upperback -5.73187 1.27687 0.425838
thorax -12.7123 0.312889 -1.93149
lowerneck 10.8562 -2.26735 2.65579
upperneck 2.82008 -2.56522 8.73527
head -0.875768 -1.39981 2.43485
rclavicle -2.0655e-016 -2.01269e-014
rhumerus -51.3467 -32.9149 -58.5946
rradius 20.3048
rwrist 2.6623
rhand -16.5185 -398.736
rfingers 7.12502
rthumb 9.69989 -428.492
lclavicle -2.0655e-016 -2.01269e-014
lhumerus -42.0404 -9.42783 78.0859
lradius 39.4248
lwrist 5.78747
lhand -19.1811 -6.97721
lfingers 7.12502
lthumb 7.13034 22.8827
rfemur -25.3691 -6.18279 22.7082
rtibia 27.3887
rfoot -6.12459 -5.10505
rtoes -6.03205
lfemur 3.55479 3.70003 -10.4293
ltibia 31.6209
lfoot -13.9236 22.6115
ltoes 10.6352
1556
root -28.2609 17.5192 -5.13123 361.557 18.3868 -4.57996
lowerback 11.8318 0.967052 3.27503
upperback -5.51308 2.04693 1.40115
thorax -12.6658 0.771984 -0.768951
lowerneck 12.3163 -2.36197 2.4662
upperneck 2.9937 -2.61728 9.50608
head -1.0639 -1.46404 2.76216
rclavicle -7.13218e-014 -2.39536e-014
rhumerus -50.3865 -34.2672 -56.83
rradius 18.7855
rwrist 3.81205
rhand -12.7612 -404.436
rfingers 7.12502
rthumb 13.3234 -433.99
lclavicle -7.13218e-014 -2.39536e-014
lhumerus -43.5882 -11.4908 79.748
lradius 41.2046
lwrist 5.97178
lhand -18.5949 -6.02007
lfingers 7.12502
lthumb 7.69613 23.8199
rfemur -22.4557 -5.13562 24.8088
rtibia 27.0527
rfoot -6.67153 -7.15303
rtoes 0.380288
lfemur 3.8885 3.91731 -7.70965
ltibia 34.5463
lfoot -14.7534 20.9149
ltoes 18.3546
1557
root -28.1515 17.5212 -5.02723 364.334 20.6869 -1.19049
lowerback 8.57017 0.378073 2.00961
upperback -6.03345 0.816696 0.158511
thorax -11.3014 0.248146 -1.10835
lowerneck 15.2298 -2.73671 3.33517
upperneck 1.196 -2.64436 8.77626
head -2.19381 -1.59658 2.47415
rclavicle 1.37814e-014 -6.70898e-015
rhumerus -49.8497 -33.4132 -57.6709
rradius 19.1018
rwrist 3.07398
rhand -16.1209 -395.472
rfingers 7.12502
rthumb 10.0835 -425.21
lclavicle 1.37814e-014 -6.70898e-015
lhumerus -44.2958 -11.8177 79.893
lradius 41.5611
lwrist 4.94546
lhand -17.5033 -5.13823
lfingers 7.12502
lthumb 8.74964 24.6604
rfemur -23.5103 -9.6844 21.1543
rtibia 25.3926
rfoot -6.02566 -4.22945
rtoes -7.45367
lfemur 0.211027 2.10894 -11.6567
ltibia 37.7163
lfoot -17.216 19.1726
ltoes 18.159
